<?xml version="1.0" encoding="iso-8859-1"?>
<!-- Uploaded to: SVG Repo, www.svgrepo.com, Generator: SVG Repo Mixer Tools -->
<!DOCTYPE svg PUBLIC "-//W3C//DTD SVG 1.1//EN" "http://www.w3.org/Graphics/SVG/1.1/DTD/svg11.dtd">
<svg fill="#79797F" height="800px" width="800px" version="1.1" id="Capa_1" xmlns="http://www.w3.org/2000/svg" xmlns:xlink="http://www.w3.org/1999/xlink" 
	 viewBox="0 0 59.999 59.999" xml:space="preserve">
<g>
	<path d="M59.13,49.933c-3.954-7.817-4.88-14.927-5.697-21.199c-0.373-2.867-0.726-5.576-1.333-8.133
		c-1.469-6.182-4.787-9.937-9.864-11.16c-2.349-0.568-4.82-0.099-6.779,1.285c-0.544,0.384-1.027,0.832-1.456,1.321V6.5v-4h-8v4
		v5.547c-0.429-0.489-0.912-0.937-1.456-1.321c-1.96-1.384-4.43-1.853-6.779-1.285c-5.078,1.224-8.396,4.979-9.865,11.16
		c-0.616,2.593-0.972,5.459-1.349,8.493c-0.822,6.609-1.753,14.101-5.681,21.867c-1.004,1.984-1.14,3.502-0.415,4.639
		C1.466,57.182,3.827,57.5,6.77,57.5c0.951,0,1.963-0.033,3.01-0.067l0.625-0.021c10.91-0.346,16.984-3.87,18.57-10.775
		c0.697-3.035,0.152-7.095-0.374-11.02c-0.309-2.302-0.601-4.475-0.601-6.204c0-1.099,0.894-1.992,2.008-1.992
		c1.098,0,1.992,0.894,1.992,1.992c0,1.729-0.292,3.902-0.601,6.204c-0.526,3.925-1.071,7.984-0.374,11.02
		c1.582,6.886,7.656,10.401,18.571,10.747c4.027,0.133,8.351-0.063,9.863-2.44C60.276,53.664,60.165,51.978,59.13,49.933z
		 M32.001,10.5h-4v-2h4V10.5z M32.001,12.5v2h-4v-2H32.001z M29.617,18.375c-0.073-0.014-0.141-0.04-0.21-0.062
		c-0.049-0.015-0.1-0.026-0.147-0.045c-0.093-0.038-0.181-0.086-0.266-0.137c-0.019-0.011-0.04-0.019-0.059-0.031
		c-0.093-0.059-0.179-0.127-0.26-0.201c-0.009-0.008-0.02-0.015-0.029-0.023c-0.074-0.069-0.14-0.146-0.203-0.225
		c-0.015-0.018-0.032-0.034-0.046-0.053c-0.043-0.058-0.078-0.123-0.115-0.186c-0.029-0.05-0.063-0.098-0.088-0.151
		c-0.012-0.024-0.019-0.05-0.029-0.075c-0.04-0.094-0.076-0.189-0.101-0.289c-0.001-0.005-0.003-0.009-0.004-0.014
		c-0.021-0.087-0.029-0.179-0.038-0.27c-0.004-0.039-0.01-0.076-0.012-0.115h3.987c-0.001,0.039-0.008,0.077-0.012,0.115
		c-0.009,0.091-0.017,0.183-0.038,0.27c-0.001,0.005-0.003,0.009-0.004,0.014c-0.025,0.1-0.061,0.195-0.101,0.289
		c-0.011,0.024-0.018,0.051-0.029,0.075c-0.025,0.053-0.058,0.101-0.088,0.151c-0.037,0.063-0.072,0.128-0.115,0.186
		c-0.014,0.019-0.031,0.035-0.046,0.053c-0.064,0.079-0.13,0.156-0.203,0.225c-0.009,0.008-0.02,0.015-0.029,0.023
		c-0.082,0.073-0.168,0.142-0.26,0.201c-0.019,0.012-0.04,0.02-0.059,0.031c-0.086,0.051-0.173,0.099-0.266,0.137
		c-0.047,0.019-0.098,0.029-0.147,0.045c-0.07,0.022-0.138,0.048-0.21,0.062c-0.125,0.024-0.253,0.038-0.384,0.038
		S29.742,18.399,29.617,18.375z M28.001,4.5h4v2h-4V4.5z M57.775,53.869c-1.105,1.736-6.378,1.568-8.114,1.517
		c-10.015-0.318-15.316-3.24-16.685-9.196c-0.616-2.682-0.096-6.558,0.407-10.307c0.318-2.369,0.618-4.607,0.618-6.47
		c0-2.201-1.791-3.992-4.008-3.992c-2.201,0-3.992,1.791-3.992,3.992c0,1.862,0.3,4.101,0.618,6.47
		c0.503,3.749,1.023,7.625,0.407,10.307c-1.354,5.894-6.812,8.911-16.685,9.225l-0.627,0.02c-3.21,0.104-6.849,0.226-7.571-0.908
		c-0.3-0.47-0.118-1.415,0.513-2.661c4.085-8.077,5.04-15.752,5.881-22.522c0.37-2.979,0.72-5.792,1.311-8.277
		c1.298-5.465,4.042-8.631,8.388-9.68c0.512-0.123,1.026-0.185,1.534-0.185c1.289,0,2.538,0.395,3.622,1.16
		c1.472,1.039,2.422,2.643,2.605,4.398c0.013,0.128,0.049,0.247,0.074,0.371c0.012,0.067,0.024,0.132,0.039,0.198
		c0.036,0.145,0.081,0.285,0.132,0.424c0.045,0.127,0.091,0.251,0.148,0.372c0.038,0.079,0.082,0.154,0.125,0.231
		c0.084,0.151,0.172,0.298,0.274,0.436c0.034,0.046,0.072,0.087,0.108,0.131c0.121,0.15,0.247,0.294,0.389,0.425
		c0.032,0.03,0.068,0.055,0.102,0.084c0.152,0.131,0.308,0.256,0.479,0.364c0.037,0.024,0.078,0.041,0.116,0.063
		c0.173,0.101,0.348,0.197,0.536,0.271c0.054,0.021,0.112,0.033,0.166,0.052c0.178,0.062,0.357,0.122,0.545,0.159
		c0.139,0.027,0.285,0.031,0.429,0.043c0.107,0.009,0.21,0.032,0.319,0.032h0.043c0.109,0,0.212-0.024,0.319-0.032
		c0.144-0.012,0.29-0.016,0.429-0.043c0.189-0.036,0.367-0.097,0.545-0.159c0.055-0.019,0.113-0.03,0.166-0.052
		c0.188-0.075,0.364-0.17,0.536-0.271c0.038-0.022,0.079-0.039,0.116-0.063c0.171-0.108,0.327-0.232,0.479-0.364
		c0.033-0.029,0.069-0.054,0.102-0.084c0.141-0.131,0.267-0.275,0.389-0.425c0.036-0.044,0.074-0.086,0.108-0.131
		c0.102-0.138,0.19-0.285,0.274-0.436c0.043-0.076,0.087-0.151,0.125-0.231c0.057-0.121,0.104-0.245,0.148-0.372
		c0.051-0.138,0.096-0.278,0.132-0.424c0.015-0.066,0.027-0.131,0.039-0.198c0.024-0.124,0.06-0.243,0.074-0.371
		c0.184-1.756,1.133-3.359,2.605-4.398c1.511-1.067,3.342-1.41,5.157-0.976c4.345,1.048,7.089,4.214,8.388,9.68
		c0.583,2.455,0.929,5.113,1.296,7.929c0.837,6.432,1.786,13.721,5.895,21.843C58.039,52.207,58.183,53.227,57.775,53.869z"/>
	<path d="M35.823,22.671c4.286-1.294,7.178-3.983,7.178-7.172c0-0.553-0.448-1-1-1s-1,0.447-1,1c0,3.252-5.038,6-11,6
		s-11-2.748-11-6c0-0.553-0.448-1-1-1s-1,0.447-1,1c0,3.189,2.892,5.878,7.178,7.172c-6.511,2.665-11.178,9.64-11.178,17.828
		c0,0.553,0.448,1,1,1s1-0.447,1-1c0-9.374,6.729-17,15-17s15,7.626,15,17c0,0.553,0.448,1,1,1s1-0.447,1-1
		C47.001,32.311,42.334,25.336,35.823,22.671z"/>
	<path d="M48.001,23.5c-0.553,0-1,0.447-1,1c0,0.552-0.449,1-1,1c-0.552,0-1,0.447-1,1s0.448,1,1,1c1.654,0,3-1.346,3-3
		C49.001,23.947,48.554,23.5,48.001,23.5z"/>
	<path d="M42.001,45.5c-0.552,0-1,0.447-1,1c0,0.552-0.449,1-1,1c-0.552,0-1,0.447-1,1s0.448,1,1,1c1.654,0,3-1.346,3-3
		C43.001,45.947,42.554,45.5,42.001,45.5z"/>
	<path d="M40.001,35.5c0-0.553-0.448-1-1-1c-0.551,0-1-0.448-1-1c0-0.553-0.448-1-1-1s-1,0.447-1,1c0,1.654,1.346,3,3,3
		C39.554,36.5,40.001,36.052,40.001,35.5z"/>
	<path d="M53.001,50.5c-0.552,0-1-0.448-1-1c0-0.553-0.447-1-1-1s-1,0.447-1,1c0,1.654,1.346,3,3,3c0.553,0,1-0.447,1-1
		S53.554,50.5,53.001,50.5z"/>
	<path d="M15.001,26.5c0-0.553-0.448-1-1-1c-0.551,0-1-0.448-1-1c0-0.553-0.448-1-1-1s-1,0.447-1,1c0,1.654,1.346,3,3,3
		C14.554,27.5,15.001,27.052,15.001,26.5z"/>
	<path d="M20.001,47.5c-0.551,0-1-0.448-1-1c0-0.553-0.448-1-1-1s-1,0.447-1,1c0,1.654,1.346,3,3,3c0.552,0,1-0.447,1-1
		S20.554,47.5,20.001,47.5z"/>
	<path d="M23.001,32.5c-0.552,0-1,0.447-1,1c0,0.552-0.449,1-1,1c-0.552,0-1,0.447-1,1s0.448,1,1,1c1.654,0,3-1.346,3-3
		C24.001,32.947,23.554,32.5,23.001,32.5z"/>
	<path d="M9.001,48.5c-0.552,0-1,0.447-1,1c0,0.552-0.449,1-1,1c-0.552,0-1,0.447-1,1s0.448,1,1,1c1.654,0,3-1.346,3-3
		C10.001,48.947,9.554,48.5,9.001,48.5z"/>
</g>
</svg>